<?xml version="1.0" encoding="UTF-8"?>
<svg width="20px" height="20px" viewBox="0 0 20 20" version="1.1" xmlns="http://www.w3.org/2000/svg" xmlns:xlink="http://www.w3.org/1999/xlink">
    <title>Search</title>
    <g stroke="none" stroke-width="1" fill="none" fill-rule="evenodd">
        <path d="M10.9671719,13.2161587 C10.0921106,13.7150038 9.07933753,14 8,14 C4.6862915,14 2,11.3137085 2,8 C2,4.6862915 4.6862915,2 8,2 C11.3137085,2 14,4.6862915 14,8 C14,9.13046817 13.6873624,10.1879159 13.1438323,11.0905981 C13.1464435,11.0931725 13.1490476,11.0957582 13.1516447,11.0983553 L17.4288346,15.8483553 C18.0229949,16.4425156 18.0229949,17.4058397 17.4288346,18 C16.8346743,18.5941603 15.8713502,18.5941603 15.2771899,18 L11,13.25 C10.988848,13.238848 10.9779053,13.2275659 10.9671719,13.2161587 L10.9671719,13.2161587 Z M8,11 C9.65685425,11 11,9.65685425 11,8 C11,6.34314575 9.65685425,5 8,5 C6.34314575,5 5,6.34314575 5,8 C5,9.65685425 6.34314575,11 8,11 Z" id="Shape" fill="#262C3A"></path>
    </g>
</svg>
